<svg viewBox="0 0 1849 2516" fill="none" xmlns="http://www.w3.org/2000/svg">
<path d="M1343.85 1272.73C1347.95 1328.68 1387.77 1333 1432.36 1439.11C1489.35 1574.68 1503.35 1706.39 1533.92 1851.24C1572.05 2031.97 1679 2044.83 1726.99 2034.99C1813.44 2017.21 1853.28 1913.81 1829.81 1802.64C1743.23 1392.39 1579.12 1198.35 1420.63 1199.84C1391.12 1200.12 1339.87 1218.23 1343.85 1272.73Z" fill="#DEE4EB"/>
<path d="M1726.99 2034.99C1710.96 2038.27 1688.36 2039.03 1663.96 2031.84C1742 2007.31 1777.04 1908.49 1754.71 1802.64C1676.49 1432.12 1535.05 1237.95 1391.65 1204.93C1401.88 1201.47 1412.16 1199.92 1420.64 1199.84C1579.12 1198.35 1743.23 1392.39 1829.81 1802.64C1853.28 1913.81 1813.44 2017.21 1726.99 2034.99Z" fill="#C7D0DC"/>
<path d="M505.491 1274.37C501.396 1330.31 461.563 1334.64 416.965 1440.75C369.405 1553.91 351.788 1664.37 329.471 1782.05C325.065 1805.36 320.456 1828.93 315.407 1852.88C277.275 2033.61 170.333 2046.47 122.348 2036.61C35.8959 2018.85 -3.94937 1915.45 19.516 1804.27C96.76 1438.31 235.691 1244.39 377.288 1207.85C394.416 1203.44 411.595 1201.31 428.697 1201.48C458.215 1201.75 509.471 1219.87 505.491 1274.37Z" fill="#DEE4EB"/>
<path d="M505.491 1274.37C501.396 1330.31 461.563 1334.64 416.965 1440.75C369.405 1553.91 351.788 1664.37 329.471 1782.05C323.881 1763.16 318.756 1743.72 314.107 1723.75C312.161 1715.49 310.32 1707.15 308.581 1698.71C291.337 1615.96 282.04 1524.37 282.04 1424.35C282.04 1339.36 315.987 1266.04 377.288 1207.85C394.416 1203.44 411.595 1201.31 428.697 1201.48C458.215 1201.75 509.471 1219.87 505.491 1274.37Z" fill="#C7D0DC"/>
<path d="M1514.91 1424.35C1514.91 1524.37 1505.61 1615.96 1488.36 1698.71C1486.63 1707.15 1484.79 1715.49 1482.84 1723.75C1404.01 2062.41 1188.48 2245.79 934.973 2245.79C681.46 2245.79 465.925 2062.41 387.092 1723.75C385.153 1715.49 383.312 1707.15 381.579 1698.71C364.325 1615.96 355.031 1524.37 355.031 1424.35C355.031 1201.84 587.748 1059.23 934.973 1059.23C1282.19 1059.23 1514.91 1201.84 1514.91 1424.35Z" fill="#DEE4EB"/>
<path d="M1514.91 1424.35C1514.91 1524.37 1505.61 1615.96 1488.36 1698.71C1486.63 1707.15 1484.79 1715.49 1482.85 1723.75C1404.01 2062.41 1188.48 2245.79 934.973 2245.79C743.92 2245.79 574.428 2141.64 468.788 1945.36C541.615 2004.39 622.425 2051.41 710.629 2077.16C852.613 2118.63 1015.51 2098.32 1129.51 1999.81C1194.03 1944.05 1238.51 1868.19 1268.01 1785.19C1270.87 1777.21 1273.55 1769.17 1276.13 1761.08C1289.4 1719.15 1299.11 1675.76 1305.84 1632.51C1318.4 1551.88 1321.97 1468.27 1302.37 1389.23C1282.76 1310.2 1237.75 1235.83 1170.52 1195.4C1128.2 1169.95 1079.6 1159.01 1031.67 1149.89C895.84 1124.05 757.996 1110.05 619.992 1108.05C707.925 1076.37 814.56 1059.24 934.973 1059.24C1282.2 1059.24 1514.91 1201.84 1514.91 1424.35Z" fill="#C7D0DC"/>
<path d="M699.049 990.213V1129.56C699.049 1203.44 804.68 1263.33 934.973 1263.33C1065.27 1263.33 1170.89 1203.44 1170.89 1129.56V990.213H699.049Z" fill="#CBD3DB"/>
<path d="M1170.89 990.213V1110.91C1104.96 1141.88 1029.96 1154.76 934.973 1154.76C850.133 1154.76 764.976 1144.45 699.052 1113.4V990.213H1170.89Z" fill="#ABB7C6"/>
<path d="M1184.93 192.613C1184.93 292.253 1073.03 373.013 934.973 373.013C796.92 373.013 685 292.253 685 192.613C685 92.9734 685 12.2134 934.973 12.2134C1184.93 12.2134 1184.93 92.9734 1184.93 192.613Z" fill="#CBD3DB"/>
<path d="M237.523 777.68C237.523 862.813 284.125 941.147 359.007 981.653C454.193 1033.13 623.364 1080.85 923.467 1080.85C1223.56 1080.85 1392.73 1033.13 1487.92 981.653C1562.8 941.147 1609.41 862.813 1609.41 777.68V404.413C1609.41 319.28 1562.8 240.947 1487.92 200.453C1392.73 148.973 1223.56 101.253 923.467 101.253C623.364 101.253 454.193 148.973 359.007 200.453C284.125 240.947 237.523 319.28 237.523 404.413V777.68Z" fill="#DEE4EB"/>
<path d="M1605.93 399.76V773.04C1605.93 858.173 1559.32 936.507 1484.45 977.013C1389.27 1028.48 1220.08 1076.2 919.987 1076.2C619.889 1076.2 450.72 1028.48 355.523 977.013C317.712 956.56 287.113 926.467 266.084 890.693C389.651 966.133 544.191 987.387 691.183 989.107C794.56 990.307 900.427 983 995.427 942.173C1167.95 868.04 1282.41 682.733 1284.88 494.96C1286.51 372.04 1243.33 212.16 1165.91 109.387C1319.12 126.973 1419.19 160.493 1484.45 195.8C1559.32 236.307 1605.93 314.64 1605.93 399.76Z" fill="#C7D0DC"/>
<path d="M934.973 1013.31C635.215 1013.31 481.341 964.12 405.043 922.853C353.581 895.013 321.613 841.32 321.613 782.733V496.36C321.613 437.773 353.581 384.08 405.043 356.24C481.343 314.973 635.217 265.787 934.973 265.787C1234.72 265.787 1388.6 314.973 1464.89 356.24C1516.36 384.08 1548.32 437.773 1548.32 496.36V782.733C1548.32 841.32 1516.36 895.013 1464.89 922.84C1388.6 964.12 1234.72 1013.31 934.973 1013.31Z" fill="#23445E"/>
<path d="M1548.32 496.36V782.72C1548.32 841.32 1516.36 895.013 1464.89 922.84C1388.6 964.12 1234.72 1013.29 934.973 1013.29C635.213 1013.29 481.344 964.12 405.04 922.84C355.561 896.08 324.1 845.413 321.756 789.467C500.571 900.12 758.137 948.707 960.667 929.333C1056.59 920.16 1157.31 891.533 1218.59 819C1250.53 781.187 1269.04 734.213 1277.71 685.707C1279.76 674.28 1281.25 662.773 1282.24 651.28C1285.6 612.707 1283.71 574.013 1279.72 535.427C1277.47 513.68 1274.56 491.973 1271.55 470.347C1264.51 420.067 1256.71 369.187 1236.17 322.533C1230.25 309.08 1223.15 295.947 1214.85 283.613C1339.48 301.653 1417.29 330.493 1464.89 356.253C1516.36 384.08 1548.32 437.773 1548.32 496.36Z" fill="#193242"/>
<path d="M758.173 648.187C758.173 715.467 703.635 681.987 636.357 681.987C569.08 681.987 514.541 715.467 514.541 648.187C514.541 580.907 569.08 526.373 636.357 526.373C703.635 526.373 758.173 580.907 758.173 648.187Z" fill="#7FD5DC"/>
<path d="M1282.24 651.28C1281.25 662.773 1279.76 674.28 1277.71 685.707C1264.03 683.787 1249.15 681.987 1233.57 681.987C1166.31 681.987 1111.76 715.467 1111.76 648.187C1111.76 580.907 1166.31 526.373 1233.57 526.373C1249.91 526.373 1265.49 529.586 1279.72 535.426C1283.71 574.013 1285.6 612.707 1282.24 651.28Z" fill="#7FD5DC"/>
<path d="M1355.4 648.187C1355.4 699.893 1323.17 692.093 1277.71 685.707C1279.76 674.28 1281.25 662.773 1282.24 651.28C1285.6 612.707 1283.71 574.013 1279.72 535.427C1324.11 553.6 1355.4 597.24 1355.4 648.187Z" fill="#67CCC7"/>
<path d="M1009.61 799.613C1009.61 820.227 1001.25 838.88 987.747 852.387C974.24 865.893 955.587 874.253 934.973 874.253C893.747 874.253 860.333 840.84 860.333 799.613C860.333 796.68 861.52 794 863.453 792.08C865.387 790.147 868.053 788.947 870.987 788.947H998.947C1004.83 788.947 1009.61 793.733 1009.61 799.613Z" fill="#7FD5DC"/>
<path d="M432.452 263.773C437.361 261.613 442.333 259.613 447.365 257.76C445.536 258.427 443.707 259.093 441.876 259.773C469.379 249.733 497.763 241.84 526.297 235.36C557.188 228.347 588.467 223.173 619.848 218.92C640.541 216.12 661.288 213.72 682.053 211.533C685.017 210.973 687.635 209.76 689.908 207.88C692.437 206.413 694.473 204.4 696.019 201.853C697.792 199.347 698.82 196.6 699.104 193.613C699.923 190.653 699.937 187.653 699.148 184.613C697.655 179.08 694.54 173.667 689.469 170.653C687.715 169.813 685.96 168.96 684.205 168.12C680.269 166.853 676.28 166.653 672.237 167.52C652.656 169.587 633.092 171.84 613.575 174.44C596.297 176.747 579.055 179.307 561.884 182.307C546.068 185.067 530.315 188.187 514.668 191.773C499.811 195.187 485.052 199.027 470.427 203.32C453.029 208.44 435.611 213.973 418.792 220.76C416.399 221.733 414.021 222.733 411.657 223.773C408.964 225.053 406.763 226.88 405.053 229.253C402.956 231.333 401.487 233.813 400.645 236.707C399.559 239.653 399.277 242.64 399.799 245.667C399.785 248.667 400.537 251.507 402.055 254.16C404.915 259.12 409.32 263.587 414.995 265.173C416.976 265.547 418.957 265.907 420.939 266.28C425.001 266.467 428.84 265.627 432.452 263.773Z" fill="white"/>
<path d="M354.519 319.707C359.579 313.987 364.948 308.573 370.581 303.427C372.877 301.493 374.549 299.16 375.595 296.413C377.137 293.8 377.927 290.947 377.964 287.84C378.235 284.747 377.731 281.813 376.455 279.067C375.685 276.227 374.253 273.747 372.16 271.587C370.7 270.347 369.239 269.094 367.779 267.84C364.369 265.64 360.633 264.427 356.571 264.213C354.563 264.373 352.555 264.547 350.547 264.72C346.68 265.6 343.273 267.36 340.327 270.013C334.693 275.16 329.323 280.587 324.264 286.293C321.968 288.227 320.296 290.56 319.251 293.307C317.708 295.92 316.919 298.773 316.881 301.88C316.612 304.973 317.115 307.893 318.391 310.653C319.16 313.48 320.592 315.973 322.685 318.12C324.147 319.373 325.607 320.627 327.067 321.867C330.477 324.08 334.213 325.294 338.276 325.507C340.283 325.334 342.291 325.173 344.299 325C348.165 324.12 351.572 322.347 354.519 319.707Z" fill="white"/>
<path d="M1276.13 1761.08C1358.01 1742.59 1435.91 1717.29 1488.36 1698.71C1486.63 1707.15 1484.79 1715.49 1482.85 1723.75C1427.4 1743.01 1349.12 1767.69 1268.01 1785.19L1276.13 1761.08Z" fill="#4DBAB8"/>
<path d="M1597.17 782.733L1634.36 777C1694.37 767.76 1738.67 716.12 1738.67 655.4V536.787C1738.67 476.067 1694.37 424.427 1634.36 415.187L1597.17 409.453V782.733Z" fill="#ABB7C6"/>
<path d="M252.16 782.733L214.975 777C154.96 767.76 110.66 716.12 110.66 655.4V536.787C110.66 476.067 154.96 424.427 214.975 415.187L252.16 409.453V782.733Z" fill="#CBD3DB"/>
<path d="M1276.13 1761.08C1273.55 1769.17 1270.87 1777.21 1268.01 1785.19C1250.24 1789.04 1232.32 1792.53 1214.48 1795.55V1860.77L1206 1862.72C1204.77 1863 1081.72 1890.68 934.973 1890.68C788.221 1890.68 665.169 1863 663.932 1862.72L655.459 1860.77V1795.55C556.219 1778.77 454.699 1747.24 387.088 1723.75C385.156 1715.49 383.315 1707.15 381.576 1698.71C449.78 1722.87 561.023 1758.4 668.08 1775.52L677.261 1776.97V1843.24C707.204 1849.33 812.693 1868.88 934.973 1868.88C1057.37 1868.88 1162.76 1849.35 1192.68 1843.24V1776.97L1201.85 1775.52C1226.59 1771.56 1251.55 1766.63 1276.13 1761.08Z" fill="#67CCC7"/>
<path d="M1795.76 1973.28C1778.27 1999.97 1753.65 2017.25 1724.57 2023.23C1710.21 2026.17 1672.57 2030.25 1633.33 2004.55C1591.13 1976.89 1561.64 1924.48 1545.67 1848.76C1538.04 1812.64 1531.39 1776.97 1524.95 1742.47C1519.44 1712.97 1514.21 1685.05 1508.44 1656.77C1520.69 1583.91 1526.91 1505.96 1526.91 1424.35C1526.91 1381.53 1518.55 1340.72 1502.05 1303.01C1487.83 1270.52 1467.52 1240.27 1441.61 1212.87C1512.09 1220.33 1581.12 1268.61 1642.44 1353.84C1678.59 1404.08 1711.57 1466.57 1740.48 1539.59C1771.11 1616.92 1797.21 1706.25 1818.08 1805.12C1831.68 1869.59 1823.55 1930.88 1795.76 1973.28ZM1471.16 1721.03C1452.12 1802.85 1424.51 1877.35 1389.09 1942.45C1354.99 2005.16 1313.67 2059.16 1266.27 2102.95C1173.64 2188.55 1059.08 2233.79 934.973 2233.79C810.867 2233.79 696.303 2188.55 603.672 2102.95C556.276 2059.16 514.952 2005.16 480.847 1942.45C445.437 1877.35 417.824 1802.85 398.772 1721.01C396.829 1712.71 394.999 1704.39 393.323 1696.25C375.879 1612.61 367.033 1521.13 367.033 1424.35C367.033 1345.43 396.855 1276.44 455.665 1219.32C510.479 1166.09 590.263 1125.01 687.052 1100.04V1129.56C687.052 1169.8 713.752 1207.11 762.233 1234.59C808.573 1260.87 869.92 1275.33 934.973 1275.33C1000.03 1275.33 1061.37 1260.87 1107.71 1234.59C1156.19 1207.11 1182.89 1169.8 1182.89 1129.56V1100.04C1279.68 1125.01 1359.47 1166.09 1414.28 1219.32C1473.08 1276.44 1502.91 1345.43 1502.91 1424.35C1502.91 1521.13 1494.07 1612.61 1476.61 1696.28C1474.93 1704.45 1473.09 1712.77 1471.16 1721.03ZM324.347 1744.29C322.147 1756.08 319.937 1767.91 317.679 1779.83C312.555 1806.93 308.101 1829.36 303.667 1850.4C287.692 1926.12 258.196 1978.52 215.996 2006.17C176.76 2031.89 139.125 2027.8 124.763 2024.85C95.6853 2018.88 71.0666 2001.61 53.5679 1974.91C25.7826 1932.51 17.6506 1871.21 31.2573 1806.75C67.9733 1632.8 119.508 1492.21 184.428 1388.92C242.779 1296.07 310.504 1237.48 380.284 1219.48C396.035 1215.41 411.983 1213.43 427.741 1213.48C402.103 1240.71 382.003 1270.77 367.892 1303.01C351.397 1340.72 343.033 1381.53 343.033 1424.35C343.033 1485.56 346.525 1544.72 353.436 1601.2C342.268 1648.36 333.553 1694.99 324.347 1744.29ZM364.715 971.093C293.661 932.667 249.523 858.56 249.523 777.68V404.413C249.523 323.547 293.661 249.44 364.715 211.013C417.775 182.307 485.751 159.533 566.751 143.307C666.353 123.36 786.368 113.253 923.467 113.253C1060.56 113.253 1180.57 123.36 1280.17 143.307C1361.17 159.533 1429.16 182.307 1482.21 211.013C1553.27 249.44 1597.41 323.547 1597.41 404.413V777.68C1597.41 858.56 1553.27 932.667 1482.21 971.093C1429.16 999.8 1361.17 1022.57 1280.17 1038.79C1180.57 1058.73 1060.56 1068.85 923.467 1068.85C786.368 1068.85 666.353 1058.73 566.751 1038.79C485.751 1022.57 417.775 999.8 364.715 971.093ZM149.416 727.693C132.159 707.573 122.655 681.907 122.655 655.4V536.787C122.655 510.293 132.159 484.613 149.416 464.493C166.672 444.373 190.601 431.08 216.791 427.04L225.523 425.707V766.48L216.795 765.133C190.6 761.107 166.672 747.813 149.416 727.693ZM757.044 50.9068C794.613 32.9335 852.813 24.2133 934.973 24.2133C1099.31 24.2133 1146.4 59.4268 1162.81 101.24C1090.25 93.2668 1010.2 89.2534 923.467 89.2534C846.213 89.2534 774.28 92.4401 708.212 98.7735C717.311 77.5868 732.88 62.4535 757.044 50.9068ZM1699.92 464.493C1717.17 484.613 1726.68 510.293 1726.68 536.787V655.4C1726.68 681.907 1717.17 707.573 1699.92 727.693C1682.67 747.813 1658.73 761.107 1632.53 765.133L1621.41 766.853V425.333L1632.53 427.04C1658.73 431.08 1682.67 444.373 1699.92 464.493ZM711.052 1083.6C776.341 1089.75 847.32 1092.85 923.467 1092.85C1008.64 1092.85 1087.37 1088.97 1158.89 1081.28V1129.56C1158.89 1160.79 1136.51 1190.67 1095.87 1213.71C1053.08 1237.97 995.947 1251.33 934.973 1251.33C874 1251.33 816.853 1237.97 774.072 1213.71C733.432 1190.67 711.052 1160.79 711.052 1129.56V1083.6ZM1841.56 1800.16C1820.41 1699.97 1793.91 1609.33 1762.8 1530.75C1733.16 1455.89 1699.21 1391.67 1661.92 1339.83C1590.36 1240.35 1507.6 1187.84 1422.48 1187.84C1421.83 1187.84 1421.17 1187.84 1420.53 1187.84C1418.93 1187.85 1417.28 1187.92 1415.61 1188.03C1359.32 1139.19 1282.53 1101.31 1191.43 1077.47C1224.25 1073.27 1255.44 1068.21 1284.89 1062.32C1368.24 1045.63 1438.47 1022.04 1493.63 992.213C1568.47 951.733 1616.36 875.573 1621 791.2L1636.19 788.853C1668.04 783.96 1697.15 767.787 1718.13 743.32C1739.12 718.853 1750.68 687.627 1750.68 655.4V536.787C1750.68 504.56 1739.12 473.333 1718.13 448.867C1697.15 424.413 1668.05 408.227 1636.19 403.32L1621.35 401.04C1620.13 312.667 1571.45 231.987 1493.63 189.893C1438.47 160.067 1368.24 136.467 1284.89 119.773C1254.76 113.747 1222.8 108.613 1189.13 104.347C1179.32 70.4666 1158.77 46.7335 1125.01 30.1068C1084.15 9.98681 1021.99 0.213318 934.973 0.213318C849.147 0.213318 787.559 9.70675 746.691 29.2534C712.784 45.4668 691.943 68.5601 681.656 101.52C639.137 106.253 599.203 112.333 562.037 119.773C478.692 136.467 408.461 160.067 353.299 189.893C275.367 232.04 226.656 312.893 225.573 401.413L213.141 403.32C181.287 408.227 152.185 424.413 131.199 448.867C110.212 473.333 98.6546 504.56 98.6546 536.787V655.4C98.6546 687.627 110.212 718.853 131.199 743.32C152.187 767.787 181.288 783.96 213.141 788.853L225.908 790.827C230.433 875.347 278.349 951.667 353.299 992.213C408.461 1022.04 478.692 1045.63 562.037 1062.32C596.163 1069.16 632.624 1074.85 671.275 1079.4C580.924 1103.99 505.049 1142.53 449.848 1191.96C442.74 1190.39 435.575 1189.53 428.815 1189.48C410.723 1189.29 392.359 1191.57 374.289 1196.24C298.461 1215.8 225.781 1278.01 164.108 1376.15C97.6773 1481.85 45.0786 1625.05 7.7746 1801.8C-7.1414 1872.47 2.23326 1940.36 33.4946 1988.07C54.5706 2020.23 84.4612 2041.08 119.935 2048.36C125.983 2049.61 135.451 2051.01 147.212 2051.01C169.052 2051.01 198.789 2046.15 229.149 2026.25C276.847 1995 309.817 1937.49 327.149 1855.35C331.621 1834.15 336.105 1811.56 341.26 1784.29C343.523 1772.36 345.736 1760.51 347.939 1748.71C353.087 1721.13 358.089 1694.41 363.433 1668.01C365.42 1679.17 367.548 1690.23 369.823 1701.13C371.535 1709.44 373.413 1717.97 375.4 1726.47C394.939 1810.4 423.323 1886.92 459.763 1953.92C495.123 2018.93 538.06 2075 587.384 2120.59C684.527 2210.35 804.72 2257.79 934.973 2257.79C1065.21 2257.79 1185.41 2210.35 1282.56 2120.59C1331.88 2075 1374.81 2018.93 1410.17 1953.92C1446.61 1886.92 1475 1810.4 1494.53 1726.48C1495.09 1724.08 1495.63 1721.67 1496.17 1719.25C1497.89 1728.35 1499.6 1737.52 1501.35 1746.88C1507.81 1781.51 1514.51 1817.32 1522.19 1853.72C1539.52 1935.87 1572.49 1993.36 1620.19 2024.61C1650.55 2044.51 1680.28 2049.39 1702.12 2049.39C1713.88 2049.39 1723.35 2047.97 1729.4 2046.73C1764.87 2039.44 1794.76 2018.59 1815.84 1986.43C1847.11 1938.72 1856.48 1870.83 1841.56 1800.16Z" fill="#141A2F"/>
<path d="M333.613 782.733V496.36C333.613 442.187 363.171 392.533 410.752 366.8C485.833 326.187 637.727 277.787 934.973 277.787C1232.21 277.787 1384.11 326.187 1459.19 366.8C1506.77 392.533 1536.32 442.187 1536.32 496.36V782.733C1536.32 836.907 1506.77 886.56 1459.19 912.293C1384.11 952.893 1232.21 1001.31 934.973 1001.31C637.723 1001.31 485.831 952.893 410.752 912.293C363.171 886.56 333.613 836.907 333.613 782.733ZM1470.6 933.4C1525.95 903.467 1560.32 845.733 1560.32 782.733V496.36C1560.32 433.36 1525.95 375.627 1470.6 345.693C1330.16 269.733 1101.8 253.787 934.973 253.787C768.135 253.787 539.779 269.733 399.335 345.693C343.992 375.627 309.613 433.36 309.613 496.36V782.733C309.613 845.733 343.992 903.48 399.335 933.4C539.773 1009.36 768.132 1025.31 934.973 1025.31C1101.8 1025.31 1330.16 1009.36 1470.6 933.4Z" fill="#141A2F"/>
<path d="M461.107 1423.91C460.48 1402.27 460.731 1380.45 463.572 1358.96C463.341 1360.68 463.112 1362.39 462.881 1364.11C463.945 1356.19 465.367 1348.31 467.572 1340.63C469.479 1333.99 471.865 1327.48 474.547 1321.12C473.897 1322.67 473.249 1324.2 472.6 1325.75C479.244 1310.09 487.999 1295.41 498.381 1281.97C497.375 1283.27 496.368 1284.57 495.361 1285.88C504.673 1273.87 515.236 1262.85 526.74 1252.92C530.136 1249.99 533.615 1247.16 537.161 1244.41C535.859 1245.41 534.555 1246.43 533.252 1247.43C548.099 1235.97 564.164 1226.15 581.019 1217.93C585.951 1215.53 590.951 1213.28 596.005 1211.13C594.468 1211.79 592.929 1212.44 591.391 1213.09C600.489 1209.27 609.761 1205.88 619.172 1202.91C623.916 1201.41 628.171 1198.37 630.716 1194.03C633.139 1189.89 634.165 1183.79 632.664 1179.15C631.151 1174.47 628.255 1169.96 623.787 1167.6C619.283 1165.23 613.897 1164.08 608.901 1165.65C586.804 1172.63 565.196 1181.79 545.052 1193.27C526.153 1204.03 508.32 1217.04 492.42 1231.89C477.265 1246.04 463.803 1262.32 452.877 1279.95C447.975 1287.87 443.625 1296.12 439.919 1304.65C435.533 1314.76 431.464 1325.04 428.897 1335.77C425.865 1348.45 424.319 1361.56 423.331 1374.55C422.333 1387.64 422.088 1400.79 422.257 1413.91C422.301 1417.24 422.375 1420.57 422.472 1423.91C422.617 1428.96 424.525 1433.97 428.129 1437.57C431.48 1440.92 436.977 1443.44 441.789 1443.23C446.785 1443.01 451.967 1441.36 455.448 1437.57C458.86 1433.85 461.256 1429.09 461.107 1423.91Z" fill="white"/>
<path d="M468.827 1510.25C468.104 1505.69 467.443 1501.13 466.828 1496.57C467.059 1498.28 467.288 1500 467.519 1501.71C467.437 1501.11 467.356 1500.49 467.277 1499.89C467.377 1497.24 466.823 1494.76 465.613 1492.45C464.833 1490.05 463.503 1487.99 461.619 1486.24C459.869 1484.35 457.797 1483.03 455.401 1482.24C453.1 1481.03 450.619 1480.48 447.959 1480.57C446.248 1480.81 444.536 1481.04 442.824 1481.27C439.552 1482.19 436.711 1483.84 434.3 1486.24C433.293 1487.53 432.287 1488.84 431.279 1490.15C429.532 1493.16 428.652 1496.41 428.641 1499.89C429.551 1506.79 430.481 1513.67 431.572 1520.52C432.169 1523.04 433.323 1525.23 435.029 1527.09C436.392 1529.19 438.199 1530.85 440.449 1532.07C442.667 1533.48 445.061 1534.24 447.632 1534.36C450.199 1534.93 452.767 1534.81 455.335 1534.01C456.873 1533.36 458.411 1532.72 459.949 1532.07C462.852 1530.35 465.161 1528.04 466.88 1525.13C467.528 1523.6 468.177 1522.05 468.827 1520.52C469.747 1517.09 469.747 1513.67 468.827 1510.25Z" fill="white"/>
<path d="M1225.33 2456.47C1225.33 2488.87 1090.72 2515.13 924.667 2515.13C758.613 2515.13 624 2488.87 624 2456.47C624 2424.05 758.613 2397.8 924.667 2397.8C1090.72 2397.8 1225.33 2424.05 1225.33 2456.47Z" fill="#DEE4EB"/>
</svg>
